<?xml version="1.0" encoding="utf-8"?>
<!-- Generator: Adobe Illustrator 16.0.0, SVG Export Plug-In . SVG Version: 6.00 Build 0)  -->
<!DOCTYPE svg PUBLIC "-//W3C//DTD SVG 1.1//EN" "http://www.w3.org/Graphics/SVG/1.1/DTD/svg11.dtd">
<svg version="1.1" id="Layer_1" xmlns="http://www.w3.org/2000/svg" xmlns:xlink="http://www.w3.org/1999/xlink" x="0px" y="0px"
	 width="162px" height="167px" viewBox="0 0 162 167" enable-background="new 0 0 162 167" xml:space="preserve">
<g>
	<g>
		<path fill="#FFFFFF" d="M64.04,8.32c-1.21-2.84,0.71-6.9,3.96-7.13c4.66-0.31,9.33-0.02,13.99-0.16c4.32-0.01,8.7-0.68,12.97,0.17
			c1.72,0.33,3.12,1.76,3.56,3.44c0.17,4.37-5.25,5.61-5.94,9.66c-4.73,16.64-3.71,34.11-3.56,51.2c0.35,2.65-0.16,6.72,3.17,7.6
			c10.36,3.25,21.31,1.54,31.91,0.88c7.76-0.92,15.67-1.11,23.2-3.39c1.77-0.56,3.72-1.12,4.89-2.68c1.44-1.74,3.07-4.31,5.74-3.66
			c3.89,0.65,4.06,5.4,4.07,8.48v12.08c-0.82,4.42,1.41,11.7-4.16,13.75c-4.14,1.92-4.86-4.07-8.27-4.83
			c-8.11-3.48-17.17-3.01-25.75-4.42c-10.69-0.44-21.79-2.51-32.17,1.06c-2.6,0.83-2.47,3.91-2.53,6.11
			c0.09,17.61-0.61,35.59,4.41,52.68c0.49,2.86,3.46,4.06,4.76,6.41c0.98,3.31-1.83,6.96-5.29,6.88c-7.68,0.5-15.41,0.14-23.1,0.25
			c-2.64,0.14-5.98-1.28-6.09-4.3c-0.06-4.24,5.4-5.4,5.86-9.48c4.56-16.75,3.73-34.29,3.41-51.47c-0.28-2.42,0.11-6.25-2.97-6.95
			c-10.17-2.84-20.9-1.98-31.22-0.53c-9.19,0.38-18.62,0.92-27.26,4.37c-2.22,0.9-2.75,3.93-5.09,4.65
			c-2.79,1.05-6.36-1.31-5.97-4.42c-0.04-8.04-0.03-16.08-0.04-24.12c-0.34-2.98,2.41-5.92,5.46-5.44c3.11,0.11,3.61,4.18,6.39,5.03
			c7.86,3.14,16.46,3.44,24.78,4.33c10.95,0.62,22.22,2.12,32.95-0.95c2.73-0.47,2.91-3.6,2.96-5.82c0-17.64,0.51-35.62-4.21-52.79
			C68.4,11.93,65.72,10.44,64.04,8.32z M67.42,5.42c1.56,1.6,3.97,2.56,4.46,4.98c6.35,16.91,5.29,35.33,5.32,53.08
			c-0.17,3.92-0.08,8.3-2.59,11.57c-2.98,3.09-7.63,3.34-11.63,3.84c-17.85,0.08-36.19,0.49-53.32-5.23
			c-2.5-0.52-3.13-3.37-5.23-4.44C4.8,77.97,3.88,86.8,4.92,95.49c2.69-4.6,7.87-6.39,12.86-7.16c14.2-2.98,28.74-3.56,43.21-3.45
			c4.43,0.16,9.17,0.22,13.05,2.68c3,2.33,3.27,6.42,3.29,9.92c-0.05,11.4,0.51,22.84-0.89,34.19c-1.07,7.81-1.83,15.82-5.12,23.08
			c-1,1.31-2.77,1.92-3.39,3.54c8.76,0.09,17.54-0.39,26.28,0.03c0.03-0.29,0.08-0.88,0.11-1.17c-1.41-0.82-3.21-1.45-3.72-3.17
			c-4.64-11.55-5.31-24.19-5.68-36.48c0.05-7.7-0.27-15.43,0.5-23.1c0.32-2.85,1.42-5.95,4.12-7.36c5.36-2.94,11.62-2.04,17.47-2.2
			c15.27-0.22,30.86,0.5,45.48,5.26c2.55,0.53,3.19,3.35,5.28,4.5c-0.39-8.77,0.61-17.67-0.61-26.37c-1.73,2.65-4.06,4.95-7.17,5.83
			c-10.78,2.83-21.91,4.06-33.03,4.21c-8.63,0.82-17.55,1.1-26.04-0.89c-4.41-0.99-6-5.85-5.99-9.86
			c-0.15-18.57-0.9-37.63,4.65-55.58c0.55-2.83,2.69-4.77,4.65-6.69C85.3,4.92,76.36,5.35,67.42,5.42z"/>
	</g>
	<path fill="#FFFFFF" d="M100.26,23.73c1.39-1.6,4.09-0.48,6.01-0.69c0.03,3.72,0.88,7.44,3.22,10.41c4.62-0.97,5.61-6.86,6.43-10.8
		c1.72,0.04,3.47,0.11,5.14,0.62c-1.71,6.13-5.67,11.09-9.47,16.02c3.54,5.99,5.32,12.85,6.18,19.7c0.1,1.24,0.61,2.88-0.81,3.6
		c-1.34,0.2-2.69,0.16-4.04-0.11c-1.44-6.24-2.11-12.81-5.33-18.47c-3.43,0.25-4.2,4-5.23,6.64c-1.69,6.3,0.37,12.99,3.67,18.42
		c-0.52,0.12-1.56,0.36-2.08,0.49c-3.28-4.27-5.2-9.67-4.7-15.09c-0.16-6.03,3.55-11.04,6.84-15.73
		C103.42,34.08,100.84,29.14,100.26,23.73z"/>
	<path fill="#FFFFFF" d="M130.64,22.44c3.66,1.48,5.15,5.71,7.85,8.38c-1.29,1.45-2.72,2.79-4.33,3.9
		c-0.98-2.33-2.46-4.38-4.23-6.17c-2.88,2.92-6.14,6.57-5.66,10.99c0.23,6.67,3.84,12.95,8.74,17.34c2.44-2.4,4-5.53,5.63-8.4
		c0.72-0.03,2.18-0.09,2.91-0.12c-0.11,0.48-0.32,1.44-0.43,1.91c-2.9,4.21-5.75,8.49-9.19,12.27c-3.52-1.71-5.56-5.21-7.76-8.28
		c-3.23-4.67-5.34-10.69-3.37-16.29C123.21,32.31,126.68,27.14,130.64,22.44z"/>
	<path fill="#FFFFFF" d="M20.91,23.64c2.07-0.15,4.15-0.12,6.22-0.07c-1.11,8.24-0.25,16.64-0.34,24.95
		c0.18,4.75-0.55,9.6,0.76,14.23c-2.18,0.04-4.35,0.03-6.53,0c1.04-5.03,0.32-10.22,0.52-15.32C21.32,39.5,21.99,31.52,20.91,23.64z
		"/>
	<path fill="#FFFFFF" d="M43.2,24.53c0.66-1.24,2.02-1.43,3.3-1.36c1.84,2.75,3.93,5.33,5.86,8.02c-1.25,1.37-2.52,2.71-3.85,4
		c-1.39-2.35-2.75-4.75-4.8-6.6c-2.45,3.17-5.68,6.59-5.35,10.9c-0.13,6.98,3.72,13.33,8.74,17.91c1.93-2.8,4.19-5.49,5.18-8.8
		c1.2,0.12,2.4,0.25,3.59,0.39c-2.76,4.97-6.24,9.59-9.94,13.91c-7.23-5.35-13.29-14.42-11.32-23.8
		C36.69,33.83,39.8,29.03,43.2,24.53z"/>
	<g>
		<path fill="#FFFFFF" d="M128.44,102.34c0.26-1.98,2.51-1.14,3.79-1.46c2.94-0.22,5.88,0.07,8.8,0.38
			c-0.95,8.7-0.04,17.49-0.33,26.23c0.31,4.12-0.84,8.54,1.01,12.41c-2.04,0.77-4.24,0.52-6.37,0.41c0.8-6.09,0.15-12.26,0.33-18.38
			c-1.85-0.48-3.23,1.14-4.81,1.78c1.46,2.2,0.81,4.71-1.15,6.35c-0.01,3.29-0.13,6.63,0.75,9.85c-2.18,0.8-4.51,0.53-6.77,0.29
			c3.24-2.64,5.06-7.36,2.4-11.07c-1.78-1.87,0.33-3.91,1.35-5.55c-2.92-1.25-4.13-4.73-2.83-7.6c1.76-5.27,7.47-7.32,10.56-11.53
			C133.12,103.21,130.79,102.68,128.44,102.34z M129.39,117.39c0.33,2.65,4,2.72,5.21,0.69c2-2.88,1.09-6.73,0.74-9.99
			C132.29,110.17,128.1,113.09,129.39,117.39z"/>
	</g>
	<path fill="#FFFFFF" d="M20.72,101.28c1.91-0.03,3.82-0.03,5.72,0.04c-0.53,3.79-0.24,7.63-0.3,11.45
		c3.15,2.31,6.38,4.51,9.62,6.67c0.18-0.05,0.54-0.17,0.72-0.22c0.08-5.95,0.16-11.91-0.15-17.86c1.93-0.08,3.87-0.11,5.81-0.12
		c-0.85,7.39-0.17,14.86-0.39,22.28c0.24,5.56-0.58,11.24,0.77,16.7c-1.99,0.52-4.05,0.69-6.07,0.23
		c0.42-5.48,0.01-10.98,0.01-16.46c-3.19-2.58-6.54-5.09-10.24-6.93c0.35,7.64-0.7,15.41,0.65,22.94c-1.96,0.8-4.04,0.95-6.12,0.6
		C21.05,127.5,21.04,114.38,20.72,101.28z"/>
	<path fill="#FFFFFF" d="M49.28,101.31c2.03-0.03,4.06-0.04,6.1-0.06c-0.38,1.74-0.64,3.51-0.57,5.3c0.06,9.3,0.03,18.59,0.04,27.89
		c-0.06,2.07,0.38,4.1,0.82,6.11c-2.12,0.28-4.26,0.3-6.39,0.2c0.99-4.34,0.36-8.81,0.54-13.21C49.6,118.8,50.35,110,49.28,101.31z"
		/>
	<path fill="#FFFFFF" d="M99.8,101.28c1.98-0.25,3.98-0.29,5.98-0.22c-0.84,4.41-0.4,8.91-0.44,13.36c2.24-1.43,4.1-3.45,6.81-4.02
		c0.27-3.12,0.28-6.29-0.43-9.36c2.02-0.08,4.03-0.1,6.05-0.07c-0.76,4.24,0.07,8.56-0.55,12.79c-3.03-0.57-6.17-0.29-8.95,1.1
		c-2.34,0.8-2.64,4.69-0.46,5.94c2.89,2.02,6.67,1.73,9.51-0.23c0.41,6.43-0.88,13.08,0.87,19.35c-1.99,0.76-4.13,0.62-6.2,0.33
		c0.61-4.9,0.35-9.85,0.24-14.76c-2.39-0.05-4.62-0.91-6.12-2.83c-0.22,0.18-0.66,0.55-0.88,0.73c0.74,5.52-0.8,11.31,1.04,16.65
		c-2.22,0.53-4.53,0.6-6.72-0.06c0.21-0.54,0.64-1.62,0.85-2.15C100.14,125.65,101.03,113.41,99.8,101.28z"/>
</g>
</svg>
